<svg xmlns="http://www.w3.org/2000/svg" viewBox="0 0 620 200" width="620" height="200" role="img" aria-label="Reeve">
  <rect x="0" y="0" width="620" height="200" fill="#f6e3df"/>

  <!-- brand mark: red R inside the ink box (site asset Reeve-R-v16-box.svg) -->
  <g transform="translate(40,30) scale(0.137)">
    <rect x="0" y="0" width="1024" height="1024" rx="150" fill="#14120f"/>
    <g transform="translate(512,512) scale(1.2) translate(-512,-446.5)">
      <rect x="384" y="256" width="128" height="128" fill="#a3342a"/>
      <rect x="256" y="128" width="128" height="128" fill="#a3342a" stroke="#14120f" stroke-width="12" stroke-linejoin="round"/>
      <rect x="384" y="128" width="128" height="128" fill="#a3342a" stroke="#14120f" stroke-width="12" stroke-linejoin="round"/>
      <rect x="256" y="256" width="128" height="128" fill="#a3342a" stroke="#14120f" stroke-width="12" stroke-linejoin="round"/>
      <rect x="256" y="384" width="128" height="128" fill="#a3342a" stroke="#14120f" stroke-width="12" stroke-linejoin="round"/>
      <rect x="384" y="384" width="128" height="128" fill="#a3342a" stroke="#14120f" stroke-width="12" stroke-linejoin="round"/>
      <rect x="256" y="512" width="128" height="128" fill="#a3342a" stroke="#14120f" stroke-width="12" stroke-linejoin="round"/>
      <rect x="256" y="640" width="128" height="128" fill="#a3342a" stroke="#14120f" stroke-width="12" stroke-linejoin="round"/>
      <path d="M 512,128 H 640 L 768,256 V 384 L 704,448 L 768,640 H 576 L 512,512 Z" fill="#a3342a" stroke="#14120f" stroke-width="12" stroke-linejoin="round"/>
      <rect x="578.5" y="642.5" width="59" height="59" fill="#a3342a" stroke="#14120f" stroke-width="12" stroke-linejoin="round"/>
      <rect x="642.5" y="642.5" width="59" height="59" fill="#a3342a" stroke="#14120f" stroke-width="12" stroke-linejoin="round"/>
      <rect x="706.5" y="642.5" width="59" height="59" fill="#a3342a" stroke="#14120f" stroke-width="12" stroke-linejoin="round"/>
      <rect x="578.5" y="706.5" width="59" height="59" fill="#a3342a" stroke="#14120f" stroke-width="12" stroke-linejoin="round"/>
      <rect x="642.5" y="706.5" width="59" height="59" fill="#a3342a" stroke="#14120f" stroke-width="12" stroke-linejoin="round"/>
      <rect x="706.5" y="706.5" width="59" height="59" fill="#a3342a" stroke="#14120f" stroke-width="12" stroke-linejoin="round"/>
      <path d="M 384,256 H 561.29192 C 610.58385,256 640,286.27027 640,320 c 0,33.72973 -29.41615,64 -78.70808,64 H 384 Z" fill="#f6e3df" stroke="#14120f" stroke-width="12" stroke-linejoin="round"/>
    </g>
  </g>

  <!-- wordmark, ink black -->
  <text x="218" y="128" font-family="'Avenir Next', ui-sans-serif, system-ui, -apple-system, 'Segoe UI', Roboto, Helvetica, Arial, sans-serif" font-size="96" font-weight="700" letter-spacing="-2" fill="#14120f">Reeve</text>
</svg>
